<svg width="602.15px" height="136.39999999999998px" xmlns="http://www.w3.org/2000/svg" viewBox="-51.07499999999999 6.800000000000011 602.15 136.39999999999998" style="background: rgba(0, 0, 0, 0);" preserveAspectRatio="xMidYMid"><defs><filter id="editing-extrusion" x="-100%" y="-100%" width="300%" height="300%"><feFlood result="color1" flood-color="#444"></feFlood><feConvolveMatrix order="8,8" divisor="1" kernelMatrix="1 0 0 0 0 0 0 0 0 1 0 0 0 0 0 0 0 0 1 0 0 0 0 0 0 0 0 1 0 0 0 0 0 0 0 0 1 0 0 0 0 0 0 0 0 1 0 0 0 0 0 0 0 0 1 0 0 0 0 0 0 0 0 1" in="SourceAlpha" result="extrude"></feConvolveMatrix><feComposite in="color1" in2="extrude" result="comp-extrude" operator="in"></feComposite><feOffset dx="4" dy="4" in="comp-extrude" result="offset-extrude"></feOffset><feMerge><feMergeNode in="offset-extrude"></feMergeNode><feMergeNode in="SourceGraphic"></feMergeNode></feMerge></filter></defs><g filter="url(#editing-extrusion)"><g transform="translate(35.51998424530029, 116.88382339477539)"><path d="M37.32 0L27.28 0L2.71-63.72L12.49-63.72L32.30-11.29L52.17-63.72L61.90-63.72L37.32 0ZM71.89-65.54L80.60-65.54L80.60 0L71.89 0L71.89-65.54ZM95.18-8.75L95.18-20.66L95.18-20.66Q95.18-22.48 95.87-24.06L95.87-24.06L95.87-24.06Q96.55-25.64 97.73-26.84L97.73-26.84L97.73-26.84Q98.91-28.04 100.51-28.73L100.51-28.73L100.51-28.73Q102.11-29.42 103.89-29.42L103.89-29.42L126.46-29.42L126.46-38.57L97.89-38.57L97.89-47.32L126.46-47.32L126.46-47.32Q128.28-47.32 129.88-46.63L129.88-46.63L129.88-46.63Q131.48-45.94 132.66-44.77L132.66-44.77L132.66-44.77Q133.83-43.59 134.52-41.99L134.52-41.99L134.52-41.99Q135.21-40.39 135.21-38.57L135.21-38.57L135.21 0L126.46 0L126.46-8.00L126.46-8.00Q126.32-6.35 125.57-4.89L125.57-4.89L125.57-4.89Q124.81-3.42 123.64-2.33L123.64-2.33L123.64-2.33Q122.46-1.24 120.95-0.62L120.95-0.62L120.95-0.62Q119.44 0 117.75 0L117.75 0L103.89 0L103.89 0Q102.11 0 100.51-0.69L100.51-0.69L100.51-0.69Q98.91-1.38 97.73-2.55L97.73-2.55L97.73-2.55Q96.55-3.73 95.87-5.33L95.87-5.33L95.87-5.33Q95.18-6.93 95.18-8.75L95.18-8.75ZM103.89-20.66L103.89-8.75L126.46-8.75L126.46-20.66L103.89-20.66ZM149.79-8.75L149.79-38.57L149.79-38.57Q149.79-40.39 150.47-41.99L150.47-41.99L150.47-41.99Q151.16-43.59 152.34-44.77L152.34-44.77L152.34-44.77Q153.52-45.94 155.12-46.63L155.12-46.63L155.12-46.63Q156.72-47.32 158.49-47.32L158.49-47.32L182.89-47.32L182.89-65.54L191.64-65.54L191.64 0L182.89 0L182.89-8.00L182.89-8.00Q182.76-6.35 182-4.89L182-4.89L182-4.89Q181.24-3.42 180.07-2.33L180.07-2.33L180.07-2.33Q178.89-1.24 177.38-0.62L177.38-0.62L177.38-0.62Q175.87 0 174.18 0L174.18 0L158.49 0L158.49 0Q156.72 0 155.12-0.69L155.12-0.69L155.12-0.69Q153.52-1.38 152.34-2.55L152.34-2.55L152.34-2.55Q151.16-3.73 150.47-5.33L150.47-5.33L150.47-5.33Q149.79-6.93 149.79-8.75L149.79-8.75ZM158.49-38.57L158.49-8.75L182.89-8.75L182.89-38.57L158.49-38.57ZM218.12 19.11L209.42 19.11L219.32-4.27L200.75-47.32L209.95-47.32L223.77-14.75L237.59-47.32L246.78-47.32L218.12 19.11ZM254.96-8.75L284.46-8.75L284.46-19.73L263.71-19.73L263.71-19.73Q261.89-19.73 260.29-20.42L260.29-20.42L260.29-20.42Q258.69-21.11 257.51-22.28L257.51-22.28L257.51-22.28Q256.34-23.46 255.65-25.06L255.65-25.06L255.65-25.06Q254.96-26.66 254.96-28.48L254.96-28.48L254.96-38.57L254.96-38.57Q254.96-40.39 255.65-41.99L255.65-41.99L255.65-41.99Q256.34-43.59 257.51-44.77L257.51-44.77L257.51-44.77Q258.69-45.94 260.29-46.63L260.29-46.63L260.29-46.63Q261.89-47.32 263.71-47.32L263.71-47.32L291.40-47.32L291.40-38.57L263.71-38.57L263.71-28.48L284.46-28.48L284.46-28.48Q286.29-28.48 287.86-27.79L287.86-27.79L287.86-27.79Q289.44-27.10 290.64-25.93L290.64-25.93L290.64-25.93Q291.84-24.75 292.53-23.15L292.53-23.15L292.53-23.15Q293.22-21.55 293.22-19.73L293.22-19.73L293.22-8.75L293.22-8.75Q293.22-6.93 292.53-5.33L292.53-5.33L292.53-5.33Q291.84-3.73 290.64-2.55L290.64-2.55L290.64-2.55Q289.44-1.38 287.86-0.69L287.86-0.69L287.86-0.69Q286.29 0 284.46 0L284.46 0L254.96 0L254.96-8.75ZM306.86-65.54L315.57-65.54L315.57 0L306.86 0L306.86-65.54ZM330.14-8.75L330.14-20.66L330.14-20.66Q330.14-22.48 330.83-24.06L330.83-24.06L330.83-24.06Q331.52-25.64 332.70-26.84L332.70-26.84L332.70-26.84Q333.87-28.04 335.47-28.73L335.47-28.73L335.47-28.73Q337.07-29.42 338.85-29.42L338.85-29.42L361.42-29.42L361.42-38.57L332.85-38.57L332.85-47.32L361.42-47.32L361.42-47.32Q363.24-47.32 364.84-46.63L364.84-46.63L364.84-46.63Q366.44-45.94 367.62-44.77L367.62-44.77L367.62-44.77Q368.80-43.59 369.49-41.99L369.49-41.99L369.49-41.99Q370.18-40.39 370.18-38.57L370.18-38.57L370.18 0L361.42 0L361.42-8.00L361.42-8.00Q361.29-6.35 360.53-4.89L360.53-4.89L360.53-4.89Q359.78-3.42 358.60-2.33L358.60-2.33L358.60-2.33Q357.42-1.24 355.91-0.62L355.91-0.62L355.91-0.62Q354.40 0 352.71 0L352.71 0L338.85 0L338.85 0Q337.07 0 335.47-0.69L335.47-0.69L335.47-0.69Q333.87-1.38 332.70-2.55L332.70-2.55L332.70-2.55Q331.52-3.73 330.83-5.33L330.83-5.33L330.83-5.33Q330.14-6.93 330.14-8.75L330.14-8.75ZM338.85-20.66L338.85-8.75L361.42-8.75L361.42-20.66L338.85-20.66ZM407.32 0L398.21 0L379.29-47.32L388.39-47.32L402.75-10.49L417.14-47.32L426.25-47.32L407.32 0Z" fill="#ccc"></path></g></g><style>text {
  font-size: 64px;
  font-family: Arial Black;
  dominant-baseline: central;
  text-anchor: middle;
}</style></svg>